#!OML:ASF H:\Dans Jumps\Project 1\Capture day 1\Session 1\subject.ASF
:FULLY-SPECIFIED
:DEGREES
404
root 0.101122 17.2967 -7.84715 12.0446 -1.4721 -0.323924
lowerback 9.68615 0.317638 -0.73668
upperback 6.78281 0.356208 1.44404
thorax 1.60194 0.121268 1.87793
lowerneck -14.4668 -0.0346928 -1.05536
upperneck 31.2335 0.0787065 0.493271
head 12.8012 -0.0258545 0.38548
rclavicle -7.7526e-015 -8.74653e-015
rhumerus -50.09 -31.001 -52.3657
rradius 17.7729
rwrist 47.8909
rhand -15.3414 -21.8884
rfingers 7.12502
rthumb 10.8355 -51.5889
lclavicle -7.7526e-015 -8.74653e-015
lhumerus -39.8497 7.07293 73.9669
lradius 17.587
lwrist 11.5093
lhand -28.7006 -8.19764
lfingers 7.12502
lthumb -2.06252 21.7721
rfemur -31.8138 -2.44607 18.4208
rtibia 37.5442
rfoot -16.6108 -0.432167
rtoes 8.21455
lfemur -30.3536 5.61728 -19.0532
ltibia 33.5902
lfoot -13.6549 5.45145
ltoes 1.26169
405
root 0.100755 17.2989 -7.8378 12.0523 -1.5019 -0.368059
lowerback 9.63787 0.327005 -0.718438
upperback 6.74816 0.370126 1.45374
thorax 1.59149 0.128892 1.87657
lowerneck -14.4327 -0.0260689 -1.03998
upperneck 31.2515 0.0917179 0.476438
head 12.8013 -0.0206493 0.378271
rclavicle -5.1684e-015 -6.36111e-015
rhumerus -49.5023 -30.7656 -53.2582
rradius 17.954
rwrist 47.2809
rhand -15.4835 -21.8468
rfingers 7.12502
rthumb 10.6984 -51.5544
lclavicle -5.1684e-015 -6.36111e-015
lhumerus -39.5202 6.50749 74.7556
lradius 18.2409
lwrist 12.6476
lhand -28.7859 -8.28193
lfingers 7.12502
lthumb -2.14489 21.687
rfemur -31.7447 -2.39386 18.4646
rtibia 37.4667
rfoot -16.6138 -0.443626
rtoes 8.21616
lfemur -30.3072 5.61456 -18.9993
ltibia 33.5746
lfoot -13.6697 5.51282
ltoes 1.22763
406
root 0.100433 17.3009 -7.82842 12.058 -1.52364 -0.414037
lowerback 9.59076 0.334678 -0.698485
upperback 6.71363 0.38193 1.46628
thorax 1.58061 0.135464 1.87737
lowerneck -14.4107 -0.0178065 -1.02221
upperneck 31.2716 0.103582 0.459905
head 12.8049 -0.0156223 0.370614
rclavicle -7.15625e-015 -1.98785e-015
rhumerus -48.904 -30.4915 -54.166
rradius 18.1589
rwrist 46.5926
rhand -15.6135 -21.8324
rfingers 7.12502
rthumb 10.573 -51.5465
lclavicle -7.15625e-015 -1.98785e-015
lhumerus -39.198 5.97434 75.5085
lradius 18.8758
lwrist 13.7178
lhand -28.8534 -8.35904
lfingers 7.12502
lthumb -2.21009 21.6093
rfemur -31.6773 -2.35028 18.511
rtibia 37.3953
rfoot -16.6134 -0.449559
rtoes 8.22784
lfemur -30.262 5.6169 -18.9445
ltibia 33.5607
lfoot -13.6851 5.56287
ltoes 1.18877
407
root 0.100246 17.3028 -7.81884 12.06 -1.53982 -0.457167
lowerback 9.54256 0.341323 -0.679373
upperback 6.68119 0.392305 1.47894
thorax 1.5726 0.141262 1.8789
lowerneck -14.3917 -0.0106576 -1.00725
upperneck 31.288 0.112726 0.449459
head 12.8076 -0.0113012 0.365376
rclavicle 4.77083e-015 6.75868e-015
rhumerus -48.2979 -30.1827 -55.0851
rradius 18.3831
rwrist 45.8408
rhand -15.7634 -21.8146
rfingers 7.12502
rthumb 10.4284 -51.536
lclavicle 4.77083e-015 6.75868e-015
lhumerus -38.8755 5.48519 76.2195
lradius 19.4777
lwrist 14.7105
lhand -28.8939 -8.45788
lfingers 7.12502
lthumb -2.24922 21.51
rfemur -31.6101 -2.32087 18.5552
rtibia 37.3305
rfoot -16.6119 -0.444288
rtoes 8.24089
lfemur -30.2128 5.62337 -18.8941
ltibia 33.5444
lfoot -13.7009 5.60322
ltoes 1.15438
408
root 0.10023 17.3046 -7.80892 12.0585 -1.55205 -0.493561
lowerback 9.49099 0.347803 -0.66246
upperback 6.65125 0.402293 1.48897
thorax 1.56907 0.146808 1.87902
lowerneck -14.3853 -0.00506471 -0.987878
upperneck 31.31 0.118449 0.439274
head 12.8153 -0.00792696 0.358998
rclavicle 3.97569e-016 -3.97569e-016
rhumerus -47.6946 -29.8573 -55.9964
rradius 18.6188
rwrist 45.0595
rhand -15.909 -21.8019
rfingers 7.12502
rthumb 10.288 -51.5302
lclavicle 3.97569e-016 -3.97569e-016
lhumerus -38.5561 5.02198 76.8982
lradius 20.059
lwrist 15.6407
lhand -28.9008 -8.55042
lfingers 7.12502
lthumb -2.25591 21.4174
rfemur -31.5419 -2.30911 18.5936
rtibia 37.2715
rfoot -16.6113 -0.424904
rtoes 8.25675
lfemur -30.1574 5.63296 -18.8525
ltibia 33.5227
lfoot -13.7146 5.63504
ltoes 1.11699
409
root 0.10044 17.3065 -7.79851 12.0523 -1.56556 -0.519653
lowerback 9.43449 0.354703 -0.651411
upperback 6.62335 0.412403 1.49475
thorax 1.57036 0.15227 1.87806
lowerneck -14.3797 0.000257886 -0.968913
upperneck 31.333 0.12301 0.431908
head 12.8237 -0.00473807 0.353608
rclavicle 1.19271e-015 -1.59028e-015
rhumerus -47.0953 -29.5185 -56.8921
rradius 18.8567
rwrist 44.27
rhand -16.0862 -21.7783
rfingers 7.12502
rthumb 10.117 -51.5151
lclavicle 1.19271e-015 -1.59028e-015
lhumerus -38.2479 4.58742 77.5454
lradius 20.6291
lwrist 16.4999
lhand -28.874 -8.62207
lfingers 7.12502
lthumb -2.23006 21.346
rfemur -31.4705 -2.31434 18.6211
rtibia 37.2166
rfoot -16.6125 -0.387513
rtoes 8.27048
lfemur -30.0919 5.64678 -18.8243
ltibia 33.4928
lfoot -13.726 5.66232
ltoes 1.0748
